<svg xmlns="http://www.w3.org/2000/svg" version="1.1" xmlns:xlink="http://www.w3.org/1999/xlink" xmlns:svgjs="http://svgjs.dev/svgjs" width="3840" height="2160" preserveAspectRatio="none" viewBox="0 0 3840 2160">
    <g mask="url(&quot;#SvgjsMask1076&quot;)" fill="none">
        <rect width="3840" height="2160" x="0" y="0" fill="url(&quot;#SvgjsLinearGradient1077&quot;)"></rect>
        <path d="M3840 0L2083.04 0L3840 455.79z" fill="rgba(255, 255, 255, .1)"></path>
        <path d="M2083.04 0L3840 455.79L3840 747.55L2067.63 0z" fill="rgba(255, 255, 255, .075)"></path>
        <path d="M2067.63 0L3840 747.55L3840 1569.27L982.5300000000002 0z" fill="rgba(255, 255, 255, .05)"></path>
        <path d="M982.5299999999997 0L3840 1569.27L3840 1704.8899999999999L452.1099999999998 0z" fill="rgba(255, 255, 255, .025)"></path>
        <path d="M0 2160L409.62 2160L0 1546.74z" fill="rgba(0, 0, 0, .1)"></path>
        <path d="M0 1546.74L409.62 2160L1385.27 2160L0 1394.31z" fill="rgba(0, 0, 0, .075)"></path>
        <path d="M0 1394.31L1385.27 2160L2829.71 2160L0 882.17z" fill="rgba(0, 0, 0, .05)"></path>
        <path d="M0 882.1700000000001L2829.71 2160L3179.58 2160L0 289.6200000000001z" fill="rgba(0, 0, 0, .025)"></path>
    </g>
    <defs>
        <mask id="SvgjsMask1076">
            <rect width="3840" height="2160" fill="#ffffff"></rect>
        </mask>
        <linearGradient x1="50%" y1="100%" x2="50%" y2="0%" gradientUnits="userSpaceOnUse" id="SvgjsLinearGradient1077">
            <stop stop-color="#0e2a47" offset="0"></stop>
            <stop stop-color="rgba(124, 0, 158, 0.08)" offset="1"></stop>
        </linearGradient>
    </defs>
</svg>
