<svg xmlns="http://www.w3.org/2000/svg" version="1.1" xmlns:xlink="http://www.w3.org/1999/xlink" xmlns:svgjs="http://svgjs.dev/svgjs" width="3840" height="4000" preserveAspectRatio="none" viewBox="0 0 3840 4000"><g mask="url(&quot;#SvgjsMask1736&quot;)" fill="none"><rect width="3840" height="4000" x="0" y="0" fill="url(&quot;#SvgjsLinearGradient1737&quot;)"></rect><path d="M3840 0L2858.0299999999997 0L3840 542.98z" fill="rgba(255, 255, 255, .1)"></path><path d="M2858.0299999999997 0L3840 542.98L3840 2102.95L1660.9299999999998 0z" fill="rgba(255, 255, 255, .075)"></path><path d="M1660.9300000000003 0L3840 2102.95L3840 2563.25L1226.8300000000004 0z" fill="rgba(255, 255, 255, .05)"></path><path d="M1226.8300000000004 0L3840 2563.25L3840 3379.89L846.8000000000004 0z" fill="rgba(255, 255, 255, .025)"></path><path d="M0 4000L1004.61 4000L0 3940.01z" fill="rgba(0, 0, 0, .1)"></path><path d="M0 3940.01L1004.61 4000L2045.65 4000L0 2113.9000000000005z" fill="rgba(0, 0, 0, .075)"></path><path d="M0 2113.9L2045.65 4000L2846.7 4000L0 880.24z" fill="rgba(0, 0, 0, .05)"></path><path d="M0 880.2399999999998L2846.7 4000L2965.0499999999997 4000L0 547.1699999999998z" fill="rgba(0, 0, 0, .025)"></path></g><defs><mask id="SvgjsMask1736"><rect width="3840" height="4000" fill="#ffffff"></rect></mask><linearGradient x1="50%" y1="100%" x2="50%" y2="0%" gradientUnits="userSpaceOnUse" id="SvgjsLinearGradient1737"><stop stop-color="rgba(14, 42, 71, 1)" offset="0"></stop><stop stop-color="rgba(93, 44, 142, 0.63)" offset="0.68"></stop><stop stop-color="rgba(127, 101, 153, 0.49)" offset="1"></stop></linearGradient></defs></svg>